<svg version="1.1" xmlns="http://www.w3.org/2000/svg" xmlns:xlink="http://www.w3.org/1999/xlink" width="78.02778" height="119.05227" viewBox="0,0,78.02778,119.05227"><g transform="translate(-200.98611,-120.47387)"><g data-paper-data="{&quot;isPaintingLayer&quot;:true}" stroke-miterlimit="10" stroke-dasharray="" stroke-dashoffset="0" style="mix-blend-mode: normal"><path d="M257.42855,186.19328c0.31376,0.81697 1.13676,1.49092 2.03287,1.90823c1.91454,0.13128 4.82225,0.61325 7.60898,0.97179c4.60422,0.55644 12.93781,3.09556 10.26278,8.64777c-2.06743,4.51583 -8.94916,3.45783 -16.87325,2.49584c-4.19206,-0.63284 -9.1353,-1.36952 -12.01245,-5.79526c-3.26405,-4.98606 -10.60714,-20.5927 -0.88817,-20.44961c7.68211,0.71516 8.61678,7.29986 9.86923,12.22125z" data-paper-data="{&quot;index&quot;:null}" fill="#6466bd" fill-rule="evenodd" stroke="#001026" stroke-width="1.2" stroke-linecap="round" stroke-linejoin="round"/><g fill-rule="evenodd"><path d="M233.03918,202.22223c0.66601,0.59702 2.06807,1.91392 -1.14443,4.55963c-3.2125,2.64571 -10.05249,1.49915 -10.82411,1.28793c-3.0164,-0.722 -6.68157,-1.72527 -10.36292,-4.18448c-5.77211,-3.81488 -9.06817,-11.4118 -9.05515,-16.63274c0.00235,-0.94314 1.14093,0.05074 1.5265,-0.60633c0.41672,-0.71015 0.09346,-3.05558 0.40339,-3.67371c0.76164,-1.51899 2.97656,0.43375 4.09247,0.17629c2.32897,-0.5642 7.85744,9.16699 14.02424,14.46819c5.00617,4.30348 11.02775,4.29982 11.34001,4.60522z" fill="#6466bd" stroke="#001026" stroke-width="1.2" stroke-linecap="round" stroke-linejoin="round"/><path d="M217.81234,194.70777c0,0 -6.98557,-1.09743 -9.45989,-0.01219c-1.9829,0.80504 -2.17794,3.03259 -2.16985,3.76056c-0.91065,-1.59709 -4.47034,-7.07791 -4.51078,-10.71774c-0.01119,-1.00698 1.36539,-0.07567 1.70459,-0.79133c0.43854,-0.92526 0.00695,-2.76778 0.6495,-3.57752c0.65688,-0.82781 3.49471,0.23216 4.258,0.21363c2.03465,0.14223 9.52844,11.12458 9.52844,11.12458z" fill="#ffffff" stroke="none" stroke-width="1" stroke-linecap="butt" stroke-linejoin="miter"/><path d="M232.97276,202.32191c0.66601,0.59702 2.06807,1.91392 -1.14443,4.55963c-3.2125,2.64571 -10.05249,1.49915 -10.82411,1.28793c-3.0164,-0.722 -6.68157,-1.72527 -10.36292,-4.18448c-5.77211,-3.81488 -9.06817,-11.4118 -9.05515,-16.63274c0.00235,-0.94314 1.14093,0.05074 1.5265,-0.60633c0.41672,-0.71015 0.09346,-3.05558 0.40339,-3.67371c0.76164,-1.51899 2.97656,0.43375 4.09247,0.17629c2.32897,-0.5642 7.85744,9.16699 14.02424,14.4682c5.00617,4.30348 11.02775,4.29982 11.34001,4.60522z" fill="none" stroke="#001026" stroke-width="1.2" stroke-linecap="round" stroke-linejoin="round"/></g><g fill-rule="nonzero" stroke-linejoin="miter"><path d="M247.31052,175.58465c3.3212,4.7055 2.67176,13.69584 2.74147,17.08146c0.07089,3.44292 0.34494,12.76067 -2.22794,17.02438c-2.28217,3.78194 -16.61397,3.18268 -19.03783,-0.63716c-3.4986,-5.51357 -4.12873,-30.73302 -1.71649,-34.50214c2.10742,-3.29284 17.21912,-3.24766 20.24079,1.03347z" fill="#6466bd" stroke="#001026" stroke-width="1.2" stroke-linecap="round"/><path d="M248.09517,187.51429c1.81442,0.9857 1.49304,5.49821 1.3237,6.85293c-0.30197,2.41578 -1.21628,9.66848 -2.64952,11.65894c-0.98015,1.36122 -2.01349,0.53484 -3.17835,0.69318c-0.9059,0.12314 -1.1459,1.45204 -2.45345,1.22535c-0.88818,-0.15399 -2.96152,-2.08931 -3.11238,-2.07671c-6.83315,0.57099 -4.74407,-6.16413 -5.31473,-11.57056c-0.13169,-1.24761 -1.37137,-7.14973 -0.34252,-8.18731c0.03185,-0.44281 0.17902,-0.85369 0.41165,-1.20275c1.24794,-3.40537 3.61092,-4.69816 6.93464,-2.56787c0.18439,0.11818 0.29175,-0.32873 0.45904,-0.47008c0.99689,-0.84234 2.39747,-1.52199 3.68148,-0.75159c1.09678,0.65806 3.99726,4.09982 4.03592,6.29865c0.06911,0.02876 0.13734,0.06132 0.20452,0.09781z" fill="#ffffff" stroke="none" stroke-width="0.5" stroke-linecap="butt"/></g><path d="M248.57815,208.1946l-3.42918,18.58399c0,0 11.05495,-3.62322 12.33715,-2.39336c2.00087,1.91921 3.26011,12.01721 3.26011,12.01721c0,0 -17.76296,0.97917 -20.25189,-1.93533c-3.93859,-4.61204 -1.98252,-22.95394 -1.98252,-22.95394" fill="#6466bd" fill-rule="nonzero" stroke="#001026" stroke-width="1.2" stroke-linecap="round" stroke-linejoin="miter"/><path d="M238.30313,211.22027l-7.9435,15.64915c0,0 11.43523,-2.13897 12.54468,-0.75126c1.73131,2.16552 1.65255,12.34142 1.65255,12.34142c0,0 -19.17562,1.73362 -21.25995,-1.4827c-3.29832,-5.08964 5.03356,-28.8782 5.03356,-28.8782" fill="#6466bd" fill-rule="nonzero" stroke="#001026" stroke-width="1.2" stroke-linecap="round" stroke-linejoin="miter"/><path d="M220.00518,193.97231c1.39895,4.88177 3.91074,11.03992 -2.3636,15.52978c-8.32187,5.02247 -9.84645,-12.15787 -9.54063,-18.10944c0.2541,-5.27262 4.15211,-8.40054 7.45368,-11.06013c6.35891,-4.82502 11.76917,-9.20755 15.83099,-6.34945c5.10896,3.44693 -0.80866,9.84048 -4.50472,12.64183c-2.22609,1.71432 -4.49446,3.59623 -6.08182,4.67465c-0.56361,0.8121 -0.93469,1.80902 -0.79388,2.67276z" fill="#6466bd" fill-rule="evenodd" stroke="#001026" stroke-width="1.2" stroke-linecap="round" stroke-linejoin="round"/><g><g stroke-linejoin="miter"><path d="M265.10082,140.46696l13.27427,15.37604c0,0 -1.1418,6.73124 -2.94635,9.25761c-2.43084,3.40319 -10.32792,9.32637 -10.32792,9.32637" fill="#6466bd" fill-rule="nonzero" stroke="#001026" stroke-width="1.2" stroke-linecap="round"/><path d="M252.68852,120.9731c0.3,-0.2 0.8,-0.1 0.9,0.3l2.6,10.7c0,0 6.4,4.7 8.3,8c3.2,5.5 3.3,10 3.3,10c0,0 7.1,2.1 8.3,7.8c1.2,5.7 -3.2,16.5 -22,20.2c-14.44349,2.8426 -26.70309,0.49109 -34.82891,-5.92087c-1.02781,-0.81103 -12.50079,-9.21538 -13.39238,-10.15404c-0.68114,-0.7171 11.07401,-21.39539 10.72129,-20.92509l-2.1,-17.9c-0.1,-0.4 0.4,-0.7 0.8,-0.5l12.1,7.9c0,0 4.5,-1.7 9.2,-1.9c2.8,-0.2 5.2,0 7.5,0.4z" fill="#6466bd" fill-rule="evenodd" stroke="#001026" stroke-width="1.2" stroke-linecap="butt"/><path d="M275.58849,158.01514c1.2,5.7 -3.6,16 -22.2,19.6c-24.2,5 -35.7,-9.4 -29,-20c3.69883,-5.90708 16.77911,-1.48228 26.56923,-1.88367c4.40213,-0.18048 10.55124,-3.9879 15.87138,-3.89999c4.27992,0.07072 8.2244,3.64247 8.75939,6.18365z" fill="#ffffff" fill-rule="evenodd" stroke="none" stroke-width="1" stroke-linecap="butt"/></g><g fill-rule="evenodd"><path d="M239.75617,145.54838c3.00698,3.48935 3.71441,7.0534 1.00814,8.56017c-3.30767,1.50677 -10.07843,2.04866 -13.08541,-1.44069c-3.1072,-3.48935 -3.58004,-6.86031 -0.47284,-8.60499c3.1072,-1.82397 9.54313,-2.00385 12.55011,1.4855z" fill="#ffffff" stroke="#001026" stroke-width="1.2" stroke-linecap="round" stroke-linejoin="round"/><path d="M239.97762,149.44341c0,1.1 -0.8,2 -1.8,2c-1,0 -1.8,-0.9 -1.8,-2c0,-1.1 0.8,-2 1.8,-2c1,0.1 1.8,0.9 1.8,2" fill="#001026" stroke="none" stroke-width="1" stroke-linecap="butt" stroke-linejoin="miter"/></g><g data-paper-data="{&quot;index&quot;:null}" fill-rule="evenodd"><path d="M264.81768,142.54116c3.10721,1.74468 2.63437,5.11564 -0.47283,8.60499c-3.00698,3.48935 -9.77774,2.94745 -13.08541,1.44069c-2.70628,-1.50677 -1.99884,-5.07082 1.00813,-8.56017c3.00698,-3.48935 9.4429,-3.30948 12.55011,-1.4855z" fill="#ffffff" stroke="#001026" stroke-width="1.2" stroke-linecap="round" stroke-linejoin="round"/><path d="M259.65478,147.92169c0,-1.1 0.8,-1.9 1.8,-2c1,0 1.8,0.9 1.8,2c0,1.1 -0.8,2 -1.8,2c-1,0 -1.8,-0.9 -1.8,-2" fill="#001026" stroke="none" stroke-width="1" stroke-linecap="butt" stroke-linejoin="miter"/></g><path d="M250.58852,152.81515c2.1,0 4.3,0.2 4.4,0.9c0.1,1.4 -1.4,4.2 -3,4.3c-1.8,0.2 -6,-2.3 -6,-3.9c-0.1,-1.2 2.6,-1.3 4.6,-1.3z" fill="#001026" fill-rule="evenodd" stroke="#001026" stroke-width="1.2" stroke-linecap="round" stroke-linejoin="round"/><path d="M230.96076,165.86581c0,0 1.493,-1.71457 3.47456,-1.58363c1.98968,0.13148 6.44088,1.50887 11.21362,2.19677c6.55524,0.94481 13.49691,1.24931 13.49691,1.24931" fill="none" fill-rule="nonzero" stroke="#001026" stroke-width="1.2" stroke-linecap="round" stroke-linejoin="miter"/></g></g></g></svg>