<svg version="1.1" xmlns="http://www.w3.org/2000/svg" xmlns:xlink="http://www.w3.org/1999/xlink" width="89.47916" height="123.28441" viewBox="0,0,89.47916,123.28441"><g transform="translate(-195.33826,-118.27967)"><g data-paper-data="{&quot;isPaintingLayer&quot;:true}" stroke-miterlimit="10" stroke-dasharray="" stroke-dashoffset="0" style="mix-blend-mode: normal"><g fill-rule="evenodd"><path d="M227.71724,203.50693c0.8,0.4 2.5,1.3 0.1,4.7c-2.4,3.4 -9.3,4.1 -10.1,4.1c-3.1,0.1 -6.9,0.1 -11.1,-1.3c-12.2,-4 -12.3,-17.1 -8.4,-19.2c3.8,-2.1 5.5,6 11,10.9c2.4,2.2 5.3,3 7.7,3.5c3.4,0.6 9.9,-3.2 10.8,-2.7z" fill="#6466bd" stroke="#001026" stroke-width="1.2" stroke-linecap="round" stroke-linejoin="round"/><path d="M202.91724,195.40693c1.6,2.7 4.7,6.5 4.7,6.5c0,0 -3.7,-0.9 -5.8,0.8c-1.7,1.3 -1.3,3.5 -1.1,4.2c-1.3,-1.3 -2.9,-3.1 -3.9,-6.6c-1,-3.5 0,-7.7 2,-8.3c2,-0.4 2.5,1.1 4.1,3.4z" fill="#ffffff" stroke="none" stroke-width="1" stroke-linecap="butt" stroke-linejoin="miter"/></g><path d="M231.72393,219.80633c-1.8,1.39184 -8,6.49525 -15.9,9.39491l-0.4,0.11598c-0.4,0.11598 -0.6,0.69593 -0.4,1.15987c1.7,2.78368 4.8,8.35103 -0.7,10.3228c-5.3,1.97177 -15.2,-14.38234 -11,-18.67384c1.9,-1.62381 3.6,-0.8119 4.5,-0.34796c0.5,0.23198 1,0.23197 1.5,0.11599c1.2,-0.46394 3.4,-1.39184 5.1,-2.43572c4.3,-2.5517 5.3,-3.59558 7.3,-5.33539c2,-1.7398 6.6,-6.0313 10.3,-2.31973c3.2,3.13164 1.4,6.61123 -0.3,8.00307z" fill="#6466bd" fill-rule="evenodd" stroke="#001026" stroke-width="1.2" stroke-linecap="round" stroke-linejoin="round"/><path d="M248.59503,188.14241c0.57004,0.66497 7.15734,11.20243 9.97564,10.30876c3.37246,-1.0097 8.2015,-3.66531 12.23932,1.56147c4.03782,5.22678 -5.46209,7.72179 -9.37294,7.85748c-9.23089,-0.16729 -15.3906,-9.09912 -16.6574,-11.36396c-1.2668,-2.26484 -3.49953,-6.1238 -3.08802,-8.84123c0.56984,-2.87709 4.98742,-1.92974 6.9034,0.47749z" fill="#6466bd" fill-rule="evenodd" stroke="#001026" stroke-width="1.2" stroke-linecap="round" stroke-linejoin="round"/><g fill-rule="evenodd"><path d="M247.72393,220.01316c2.1,2.55104 6.7,7.78736 6.7,7.78736c0,0 14.3,-3.35663 14.3,6.31045c0,5.77339 -7.2,7.11605 -16.9,5.90766c-0.6,-0.13426 -1.2,-0.4028 -1.7,-0.93986c-2.2,-2.55104 -8.5,-10.06987 -12.5,-15.3062c-5.9,-7.78736 -10.8,-12.88943 -10.8,-12.88943c-8.5,-11.14399 -1.6,-15.84327 1.1,-22.28798c2.5,-5.50486 3.6,-4.43074 9.6,-2.81956c3.4,0.67132 5.4,1.07412 7.6,0.93985c3.3,-0.13426 2.7,6.31044 1.8,9.66707c0,0 -1.4,4.9678 -2.7,7.51884c-1.6,3.0881 -2.8,5.10207 -4,6.31045z" fill="#6466bd" stroke="#001026" stroke-width="1.2" stroke-linecap="round" stroke-linejoin="round"/><path d="M239.32393,210.07756c0,0 -1.5,-1.61118 -3.1,-3.62516c-2,-2.41677 -4,-4.43074 -2,-8.59296c1.8,-3.22236 3.5,-7.51883 8,-3.62515c4.3,3.62516 2.4,6.98177 2.4,6.98177c-2.2,6.04192 -5.3,8.86149 -5.3,8.86149z" fill="#ffffff" stroke="none" stroke-width="1" stroke-linecap="butt" stroke-linejoin="miter"/></g><path d="M221.00732,200.74563c1.16708,4.07263 3.26255,9.21009 -1.97184,12.95577c-6.94255,4.19001 -8.21443,-10.14274 -7.9593,-15.10786c0.21198,-4.3987 3.46391,-7.00818 6.21826,-9.22695c5.30494,-4.02529 9.81847,-7.68143 13.20705,-5.29705c4.26217,2.87561 -0.67463,8.20945 -3.75808,10.54649c-1.85712,1.43018 -3.74952,3.00017 -5.07378,3.89984c-0.47019,0.6775 -0.77977,1.50918 -0.6623,2.22976z" fill="#6466bd" fill-rule="evenodd" stroke="#001026" stroke-width="1.2" stroke-linecap="round" stroke-linejoin="round"/><g><g fill-rule="evenodd"><path d="M253.86548,128.98751c0.3,-0.2 0.8,-0.1 0.9,0.3l2.6,10.7c0,0 6.4,4.7 8.3,8c3.2,5.5 3.3,10 3.3,10c0,0 7.1,2.1 8.3,7.8c1.2,5.7 -3.2,16.5 -22,20.2c-18.8,3.7 -33.9,-1.4 -41,-12.8c-7.1,-11.4 4.1,-25 3.5,-24.2l-2.1,-17.9c-0.1,-0.4 0.4,-0.7 0.8,-0.5l12.1,7.9c0,0 4.5,-1.7 9.2,-1.9c2.8,-0.2 5.2,0 7.5,0.4z" fill="#6466bd" stroke="#001026" stroke-width="1.2" stroke-linecap="butt" stroke-linejoin="miter"/><path d="M268.66546,158.38751c0,0 6.9,1.8 8.1,7.5c1.2,5.7 -3.6,16 -22.2,19.6c-24.2,5 -35.7,-9.4 -29,-20c6.7,-10.7 18.2,-1.6 26.6,-2.2c7.2,-0.5 8,-6.8 16.5,-4.9z" fill="#ffffff" stroke="none" stroke-width="1" stroke-linecap="butt" stroke-linejoin="miter"/><path d="M282.47141,158.99085c-4.7,3.8 -7.30595,4.39665 -7.30595,4.39665" fill="none" stroke="#001026" stroke-width="1.2" stroke-linecap="round" stroke-linejoin="round"/><path d="M283.40637,173.29495c-6.3,0.5 -7.8409,-4.00743 -7.8409,-4.00743" fill="none" stroke="#001026" stroke-width="1.2" stroke-linecap="round" stroke-linejoin="round"/><path d="M251.76548,160.68751c2.1,0 4.3,0.2 4.4,0.9c0.1,1.4 -1.4,4.2 -3,4.3c-1.8,0.2 -6,-2.3 -6,-3.9c-0.1,-1.2 2.6,-1.3 4.6,-1.3z" fill="#001026" stroke="#001026" stroke-width="1.2" stroke-linecap="round" stroke-linejoin="round"/><path d="M206.76548,163.16074c0,0 8.6,-1.17323 12.1,1.92677" fill="none" stroke="#001026" stroke-width="1.2" stroke-linecap="round" stroke-linejoin="round"/><path d="M208.83127,173.2849c0,0 6.0342,-2.99739 10.3342,-4.69739" fill="none" stroke="#001026" stroke-width="1.2" stroke-linecap="round" stroke-linejoin="round"/><g><path d="M263.56545,148.9875c2.9,4.5 3,9.6 0.2,11.4c-2.8,1.8 -7.4,-0.3 -10.4,-4.8c-2.9,-4.5 -3,-9.6 -0.2,-11.4c2.8,-1.9 7.5,0.3 10.4,4.8z" fill="#ffffff" stroke="#001026" stroke-width="1.2" stroke-linecap="round" stroke-linejoin="round"/><path d="M263.16546,154.68751c0,1.1 -0.8,2 -1.8,2c-1,0 -1.8,-0.9 -1.8,-2c0,-1.1 0.8,-2 1.8,-2c1,0 1.8,0.9 1.8,2" fill="#001026" stroke="none" stroke-width="1" stroke-linecap="butt" stroke-linejoin="miter"/></g><g><path d="M238.76548,151.78751c3,4.4 2.8,9.8 0.1,11.7c-3.3,1.9 -7.7,0.5 -10.7,-3.9c-3.1,-4.4 -3.3,-10.1 -0.2,-12.3c3.1,-2.3 7.8,0.1 10.8,4.5z" fill="#ffffff" stroke="#001026" stroke-width="1.2" stroke-linecap="round" stroke-linejoin="round"/><path d="M238.16547,157.58751c0,1.1 -0.8,2 -1.8,2c-1,0 -1.8,-0.9 -1.8,-2c0,-1.1 0.8,-2 1.8,-2c1,0.1 1.8,0.9 1.8,2" fill="#001026" stroke="none" stroke-width="1" stroke-linecap="butt" stroke-linejoin="miter"/></g></g><path d="M232.13772,173.82875c0,0 1.493,-1.71457 3.47456,-1.58363c1.98968,0.13148 6.44088,1.50887 11.21362,2.19677c6.55524,0.94481 13.49691,1.24931 13.49691,1.24931" fill="none" fill-rule="nonzero" stroke="#001026" stroke-width="1.2" stroke-linecap="round" stroke-linejoin="miter"/><path d="M218.3293,189.10498l-10.92556,4.43964l-2.68661,-62.54098l12.0002,-11.96772l67.34441,1.35119l-0.53732,69.87603l-5.01501,3.08844l-6.08965,-3.28147l-9.85091,4.82569l-9.13448,-4.63267l-10.38823,2.31633l-8.05984,-2.70239l-10.56734,2.89542z" fill="#daba95" fill-rule="nonzero" stroke="#000000" stroke-width="1.5" stroke-linecap="round" stroke-linejoin="miter"/><path d="M254.72264,159.03233c-1.76776,1.76776 -3.53553,0 -3.53553,0l-0.79857,-0.92316c-2.21935,-3.88481 -16.38396,-2.07234 -15.85044,1.49423c0.08767,0.58608 0.99931,0.63723 1.49898,0.95584c0,0 1.84985,1.68168 0.16817,3.53153c-1.68168,1.84985 -3.53153,0.16817 -3.53153,0.16817c-0.95137,-1.0005 -2.552,-1.65434 -2.8541,-3.00149c-1.22737,-5.47326 3.00598,-12.25201 6.09559,-16.37318c0.74558,-0.99451 4.87686,-6.50842 6.61845,-6.14608c2.309,0.4804 3.69169,2.96695 5.27713,4.71299c2.90626,3.20065 4.75563,8.39235 6.91896,12.17728l-0.00711,-0.13169c0,0 1.76776,1.76777 0,3.53554z" fill="#000000" fill-rule="nonzero" stroke="none" stroke-width="0.5" stroke-linecap="butt" stroke-linejoin="miter"/><path d="M273.91573,156.26219c-1.76776,1.76776 -3.53553,0 -3.53553,0l-0.19786,-0.19787c-2.09121,-2.09237 -6.62071,-0.04557 -7.74989,3.22828c0,0 -0.84084,2.35435 -3.19519,1.51351c-2.35436,-0.84084 -1.51352,-3.1952 -1.51352,-3.1952c1.43937,-3.85191 -0.17542,-8.86502 2.32367,-12.40298c0.97271,-1.37706 2.14337,-3.32393 3.82921,-3.30442c1.68671,0.01952 2.61867,2.14571 3.75519,3.39218c2.15585,2.36442 3.79931,4.94764 6.08607,7.2331l0.19786,0.19787c0,0 1.76777,1.76777 0,3.53553z" fill="#000000" fill-rule="nonzero" stroke="none" stroke-width="0.5" stroke-linecap="butt" stroke-linejoin="miter"/><path d="M271.90791,165.4745c2.47487,0.35356 2.12132,2.82842 2.12132,2.82842l-0.41297,2.87485c-1.08287,4.23809 -2.98134,7.67886 -8.15326,7.37931c-1.56466,-0.09062 -3.04057,-0.80662 -4.48069,-1.42502c-0.27017,-0.11602 -1.73988,-1.88449 -2.5985,-1.09549c-0.677,0.6221 -0.80514,1.77796 -1.59317,2.25161c-6.02088,3.61886 -14.59176,3.78376 -19.08561,-2.29959c-0.87963,-1.19075 -1.34941,-2.63545 -2.02411,-3.95318c0,0 -1.11804,-2.23607 1.11803,-3.3541c2.23607,-1.11803 3.35411,1.11803 3.35411,1.11803c1.28515,2.64975 2.7709,5.72829 6.2481,6.16475c1.34112,0.16834 2.6796,-0.38175 3.99626,-0.6873c1.1769,-0.2731 2.45812,-0.38602 3.47048,-1.04541c0.88813,-0.57848 1.01557,-2.03302 1.96844,-2.49719c1.38521,-0.67479 3.04128,-0.87356 4.57093,-0.68836c2.05156,0.24838 6.21823,4.96982 7.94293,1.08639c0.25755,-0.5799 0.23386,-1.24731 0.35078,-1.87097l0.3785,-2.66542c0,0 0.35355,-2.47487 2.82843,-2.12132z" fill="#000000" fill-rule="nonzero" stroke="none" stroke-width="0.5" stroke-linecap="butt" stroke-linejoin="miter"/></g></g></g></svg>