<?xml version="1.0" encoding="utf-8"?>
<!-- Generator: Adobe Illustrator 28.0.0, SVG Export Plug-In . SVG Version: 6.00 Build 0)  -->
<svg version="1.1"
	 id="Calque_1" text-rendering="geometricPrecision" image-rendering="optimizeQuality" shape-rendering="geometricPrecision"
	 xmlns="http://www.w3.org/2000/svg" xmlns:xlink="http://www.w3.org/1999/xlink" x="0px" y="0px" viewBox="0 0 512 512"
	 style="enable-background:new 0 0 512 512;" xml:space="preserve">
<style type="text/css">
	.st0{fill:#FFFFFF;}
</style>
<g>
	<g>
		<path class="st0" d="M360.9,160.6c-19.9-9.1-40.8-15.5-62.4-19.2c-2.9,5.3-5.6,10.7-8,16.2c-11.5-1.7-23-2.6-34.6-2.6
			s-23.2,0.9-34.6,2.6c-2.3-5.5-5-11-8-16.2c-21.5,3.7-42.5,10.1-62.4,19.2C111.4,219,100.7,276,106.1,332.1
			c23.1,17.1,49,30.1,76.5,38.4c6.2-8.3,11.7-17.2,16.4-26.4c-9-3.3-17.6-7.5-25.8-12.3c2.2-1.6,4.3-3.2,6.3-4.8
			c23.9,11.2,50,17.1,76.5,17.1c26.4,0,52.6-5.9,76.5-17.1c2.1,1.7,4.2,3.3,6.3,4.8c-8.2,4.9-16.9,9-25.9,12.4
			c4.7,9.2,10.2,18.1,16.4,26.4c27.5-8.3,53.4-21.3,76.6-38.4l0,0C412.2,267.1,395.1,210.6,360.9,160.6L360.9,160.6z M205.8,297.6
			c-14.9,0-27.2-13.5-27.2-30.2c0-16.6,11.9-30.3,27.2-30.3s27.5,13.6,27.2,30.3S221,297.6,205.8,297.6L205.8,297.6z M306.2,297.6
			c-14.9,0-27.2-13.5-27.2-30.2c0-16.6,11.9-30.3,27.2-30.3s27.4,13.6,27.2,30.3C333.1,284.1,321.4,297.6,306.2,297.6z"/>
	</g>
</g>
</svg>
