<?xml version="1.0" encoding="UTF-8"?><svg xmlns="http://www.w3.org/2000/svg" viewBox="0 0 600 372"><defs><style>
      .cls-1 {
        fill: #fff;
      }
    </style></defs><rect class="cls-1" width="600" height="372"/><g><path d="M230.14,161.37v45.05h25.42c2.03,0,3.58,.49,4.67,1.48,1.08,.99,1.63,2.22,1.63,3.71s-.54,2.75-1.6,3.69c-1.07,.94-2.63,1.41-4.69,1.41h-30.27c-2.73,0-4.69-.6-5.89-1.82-1.2-1.21-1.79-3.17-1.79-5.87v-47.67c0-2.53,.57-4.43,1.71-5.7,1.14-1.27,2.64-1.9,4.5-1.9s3.41,.63,4.58,1.88c1.17,1.25,1.75,3.16,1.75,5.72Z"/><path d="M294.1,192.62h-11.48v17.52c0,2.5-.59,4.41-1.77,5.7s-2.67,1.94-4.48,1.94-3.41-.64-4.56-1.92c-1.15-1.28-1.73-3.16-1.73-5.64v-47.71c0-2.76,.63-4.73,1.9-5.91s3.28-1.77,6.04-1.77h16.09c4.76,0,8.42,.37,10.98,1.1,2.53,.7,4.72,1.87,6.57,3.5,1.84,1.63,3.24,3.63,4.2,6s1.44,5.02,1.44,7.98c0,6.31-1.94,11.08-5.83,14.33-3.88,3.25-9.67,4.88-17.35,4.88Zm-3.04-28.37h-8.44v18.91h8.44c2.96,0,5.42-.31,7.41-.93,1.98-.62,3.5-1.63,4.54-3.04,1.04-1.41,1.56-3.25,1.56-5.53,0-2.73-.8-4.95-2.41-6.67-1.8-1.83-5.5-2.74-11.1-2.74Z"/><path d="M351.77,192.62h-11.48v17.52c0,2.5-.59,4.41-1.77,5.7-1.18,1.29-2.67,1.94-4.47,1.94s-3.41-.64-4.56-1.92c-1.16-1.28-1.73-3.16-1.73-5.64v-47.71c0-2.76,.63-4.73,1.9-5.91s3.28-1.77,6.04-1.77h16.08c4.76,0,8.42,.37,10.98,1.1,2.53,.7,4.72,1.87,6.57,3.5,1.84,1.63,3.24,3.63,4.2,6,.96,2.36,1.43,5.02,1.43,7.98,0,6.31-1.94,11.08-5.83,14.33-3.88,3.25-9.67,4.88-17.35,4.88Zm-3.04-28.37h-8.44v18.91h8.44c2.96,0,5.43-.31,7.41-.93,1.98-.62,3.5-1.63,4.54-3.04,1.04-1.41,1.56-3.25,1.56-5.53,0-2.73-.8-4.95-2.41-6.67-1.8-1.83-5.5-2.74-11.1-2.74Z"/><path d="M379.3,217.78c-1.75,0-3.25-.56-4.52-1.69-1.27-1.13-1.9-2.7-1.9-4.73,0-1.72,.61-3.19,1.82-4.43,1.21-1.24,2.7-1.86,4.48-1.86s3.29,.61,4.54,1.84c1.25,1.22,1.88,2.71,1.88,4.45,0,2-.63,3.57-1.88,4.71-1.25,1.14-2.72,1.71-4.41,1.71Z"/><path d="M435.49,161.37v32.42c0,2.82-.12,5.21-.36,7.18-.24,1.97-.78,3.97-1.62,6-1.41,3.41-3.73,6.06-6.97,7.96-3.24,1.9-7.18,2.85-11.82,2.85-4.19,0-7.69-.66-10.49-1.98s-5.06-3.46-6.78-6.42c-.9-1.58-1.63-3.39-2.2-5.45-.56-2.05-.84-4.01-.84-5.87,0-1.97,.55-3.48,1.65-4.52s2.5-1.56,4.22-1.56,2.91,.48,3.76,1.44,1.49,2.45,1.94,4.48c.48,2.17,.96,3.9,1.43,5.19,.48,1.29,1.28,2.41,2.41,3.33,1.12,.93,2.73,1.39,4.81,1.39,5.54,0,8.32-4.07,8.32-12.2v-34.24c0-2.53,.56-4.43,1.67-5.7,1.11-1.27,2.62-1.9,4.54-1.9s3.48,.63,4.62,1.9,1.71,3.17,1.71,5.7Z"/><path d="M496.12,198.15c0,3.74-.96,7.11-2.89,10.09-1.93,2.98-4.75,5.32-8.46,7.01-3.71,1.69-8.12,2.53-13.21,2.53-6.11,0-11.15-1.15-15.12-3.46-2.81-1.66-5.1-3.88-6.86-6.65s-2.64-5.47-2.64-8.08c0-1.52,.53-2.82,1.58-3.91,1.06-1.08,2.4-1.63,4.03-1.63,1.32,0,2.44,.42,3.36,1.27,.91,.84,1.7,2.1,2.34,3.76,.79,1.97,1.64,3.62,2.55,4.94,.91,1.32,2.2,2.41,3.86,3.27,1.66,.86,3.84,1.29,6.54,1.29,3.71,0,6.73-.87,9.06-2.6,2.32-1.73,3.48-3.89,3.48-6.48,0-2.05-.63-3.72-1.88-5-1.25-1.28-2.87-2.26-4.86-2.93s-4.64-1.39-7.96-2.15c-4.45-1.04-8.17-2.26-11.17-3.65-3-1.39-5.38-3.29-7.13-5.7-1.76-2.41-2.64-5.4-2.64-8.97s.93-6.43,2.79-9.08c1.86-2.65,4.54-4.68,8.06-6.1,3.52-1.42,7.66-2.13,12.41-2.13,3.8,0,7.08,.47,9.86,1.41,2.77,.94,5.07,2.2,6.9,3.76,1.83,1.56,3.17,3.2,4.01,4.92,.84,1.72,1.27,3.39,1.27,5.02,0,1.49-.53,2.84-1.58,4.03-1.05,1.2-2.37,1.79-3.95,1.79-1.44,0-2.53-.36-3.27-1.08-.75-.72-1.56-1.89-2.43-3.53-1.13-2.34-2.48-4.16-4.05-5.47-1.58-1.31-4.11-1.96-7.6-1.96-3.24,0-5.85,.71-7.83,2.13-1.98,1.42-2.98,3.13-2.98,5.13,0,1.24,.34,2.31,1.01,3.21,.68,.9,1.6,1.67,2.79,2.32,1.18,.65,2.38,1.15,3.59,1.52,1.21,.37,3.21,.9,6,1.6,3.49,.82,6.65,1.72,9.48,2.7,2.83,.99,5.23,2.18,7.22,3.59,1.98,1.41,3.53,3.19,4.64,5.34,1.11,2.15,1.67,4.79,1.67,7.92Z"/></g><path d="M102.13,148.22c0-5.82,4.72-10.53,10.53-10.53h75.25c5.82,0,10.53,4.72,10.53,10.53v75.25c0,5.82-4.72,10.53-10.53,10.53H112.66c-5.82,0-10.53-4.72-10.53-10.53v-75.25Zm10.53-1.5c-.83,0-1.5,.67-1.5,1.5v75.25c0,.83,.67,1.5,1.5,1.5h75.25c.83,0,1.5-.67,1.5-1.5v-75.25c0-.83-.67-1.5-1.5-1.5H112.66Zm44.97,23.9c1.76-1.76,4.62-1.76,6.38,0l12.04,12.04c1.76,1.76,1.76,4.62,0,6.38l-12.04,12.04c-1.69,1.82-4.55,1.93-6.37,.24-.64-.59-1.09-1.36-1.3-2.2-.41-1.6,.09-3.29,1.29-4.42l8.85-8.85-8.85-8.85c-1.76-1.76-1.76-4.62,0-6.38Zm-14.69,6.38l-8.85,8.85,8.85,8.85c1.82,1.69,1.93,4.55,.24,6.37-.59,.64-1.36,1.09-2.2,1.3-1.6,.41-3.29-.09-4.42-1.29l-12.04-12.04c-1.76-1.76-1.76-4.62,0-6.38l12.04-12.04c1.78-1.66,4.55-1.61,6.27,.11,1.72,1.72,1.76,4.49,.11,6.27Z"/></svg>