<?xml version="1.0" encoding="utf-8"?>
<!-- Generator: Adobe Illustrator 28.0.0, SVG Export Plug-In . SVG Version: 6.00 Build 0)  -->
<svg version="1.1" id="Calque_1" xmlns="http://www.w3.org/2000/svg" xmlns:xlink="http://www.w3.org/1999/xlink" x="0px" y="0px"
	 viewBox="0 0 600 372" style="enable-background:new 0 0 600 372;" xml:space="preserve">
<style type="text/css">
	.st0{fill:#565656;}
	.st1{fill:#404040;}
	.st2{fill:none;stroke:#000000;stroke-width:23;stroke-miterlimit:10;stroke-opacity:0.3059;}
	.st3{fill:none;stroke:#FFA9A9;stroke-width:13.5;stroke-miterlimit:10;}
	.st4{fill:none;stroke:#FFA9A9;stroke-width:10;stroke-miterlimit:10;}
</style>
<g transform="translate(79.3,139.3)">
	<g>
		<path class="st0" d="M-79.3,233.2v-372h600v372H-79.3z"/>
		<path class="st1" d="M-98.6,47.2c0-176.4,143-319.3,319.3-319.3S540-129.2,540,47.2S397.1,366.5,220.7,366.5
			S-98.6,223.6-98.6,47.2L-98.6,47.2z"/>
		<path class="st0" d="M-59.1,47.2c0-154.6,125.2-279.8,279.8-279.8S500.5-107.4,500.5,47.2S375.3,327,220.7,327
			S-59.1,201.8-59.1,47.2L-59.1,47.2z"/>
		<path class="st1" d="M-19.1,47.2c0-132.5,107.3-239.8,239.8-239.8S460.5-85.3,460.5,47.2S353.2,287,220.7,287
			S-19.1,179.7-19.1,47.2L-19.1,47.2z"/>
		<path class="st0" d="M21.4,47.2c0-110.1,89.2-199.3,199.3-199.3S420-62.9,420,47.2s-89.2,199.3-199.3,199.3S21.4,157.3,21.4,47.2
			L21.4,47.2z"/>
		<path class="st1" d="M60.6,47.2c0-88.4,71.7-160.1,160.1-160.1S380.8-41.2,380.8,47.2s-71.7,160.1-160.1,160.1
			S60.6,135.6,60.6,47.2z"/>
		<path class="st0" d="M101.4,47.2c0-65.9,53.4-119.3,119.3-119.3S340-18.7,340,47.2s-53.4,119.3-119.3,119.3
			S101.4,113.1,101.4,47.2L101.4,47.2z"/>
		<path class="st1" d="M140.6,47.2c0-44.2,35.9-80.1,80.1-80.1S300.8,3,300.8,47.2s-35.9,80.1-80.1,80.1S140.6,91.4,140.6,47.2z"/>
		<path class="st0" d="M180.8,47.2c0-22.1,17.9-39.9,39.9-39.9s39.9,17.9,39.9,39.9c0,22.1-17.9,39.9-39.9,39.9
			C198.6,87.1,180.8,69.3,180.8,47.2z"/>
		<g>
			<g>
				<path class="st2" d="M80.1,177.3L220.7-82.9l140.6,260.1H80.1z"/>
				<path class="st2" d="M279.5,90.9c0,0-27,31.2-60.2,31.2S159,90.9,159,90.9s27-31.2,60.2-31.2S279.5,90.9,279.5,90.9z"/>
				<path class="st2" d="M234.7,89.2c0,16-6.9,29-15.5,29s-15.5-13-15.5-29s6.9-29,15.5-29S234.7,73.2,234.7,89.2z"/>
			</g>
			<path class="st3" d="M80.1,177.3L220.7-82.9l140.6,260.1H80.1z"/>
			<path class="st4" d="M279.5,90.9c0,0-27,31.2-60.2,31.2S159,90.9,159,90.9s27-31.2,60.2-31.2S279.5,90.9,279.5,90.9z"/>
			<path class="st4" d="M234.7,89.2c0,16-6.9,29-15.5,29s-15.5-13-15.5-29s6.9-29,15.5-29S234.7,73.2,234.7,89.2z"/>
		</g>
	</g>
</g>
</svg>
