<?xml version="1.0" encoding="UTF-8" standalone="no"?>
<!-- Generator: Adobe Illustrator 28.0.0, SVG Export Plug-In . SVG Version: 6.00 Build 0)  -->

<svg
   version="1.1"
   id="Calque_1"
   x="0px"
   y="0px"
   viewBox="0 0 600 372"
   style="enable-background:new 0 0 600 372;"
   xml:space="preserve"
   sodipodi:docname="library.svg"
   inkscape:version="1.3 (0e150ed6c4, 2023-07-21)"
   xmlns:inkscape="http://www.inkscape.org/namespaces/inkscape"
   xmlns:sodipodi="http://sodipodi.sourceforge.net/DTD/sodipodi-0.dtd"
   xmlns="http://www.w3.org/2000/svg"
   xmlns:svg="http://www.w3.org/2000/svg"><defs
   id="defs14" /><sodipodi:namedview
   id="namedview14"
   pagecolor="#505050"
   bordercolor="#ffffff"
   borderopacity="1"
   inkscape:showpageshadow="0"
   inkscape:pageopacity="0"
   inkscape:pagecheckerboard="1"
   inkscape:deskcolor="#505050"
   inkscape:zoom="1.1633333"
   inkscape:cx="300.00001"
   inkscape:cy="184.81376"
   inkscape:window-width="2100"
   inkscape:window-height="1224"
   inkscape:window-x="-9"
   inkscape:window-y="89"
   inkscape:window-maximized="1"
   inkscape:current-layer="Calque_1" />&#10;<style
   type="text/css"
   id="style1">&#10;	.st0{fill:#505072;}&#10;	.st1{fill:#383849;}&#10;	.st2{fill:none;}&#10;	.st3{fill:#2D2C3F;}&#10;	.st4{fill:#FFFFFF;}&#10;</style>&#10;<path
   class="st0"
   d="M0,372V0h600v372H0z"
   id="path1"
   style="fill:#005544" />&#10;<path
   class="st1"
   d="M-19.3,186c0-176.4,143-319.3,319.3-319.3S619.3,9.6,619.3,186S476.4,505.3,300,505.3S-19.3,362.4-19.3,186  L-19.3,186z"
   id="path2"
   style="fill:#002b22" />&#10;<path
   class="st0"
   d="M20.2,186C20.2,31.4,145.4-93.8,300-93.8S579.8,31.4,579.8,186S454.6,465.8,300,465.8S20.2,340.6,20.2,186  L20.2,186z"
   id="path3"
   style="fill:#005544" />&#10;<path
   class="st1"
   d="M60.2,186C60.2,53.5,167.5-53.8,300-53.8S539.8,53.5,539.8,186S432.5,425.8,300,425.8S60.2,318.5,60.2,186z"
   id="path4"
   style="fill:#002b22" />&#10;<path
   class="st0"
   d="M100.7,186c0-110.1,89.2-199.3,199.3-199.3S499.3,75.9,499.3,186S410.1,385.3,300,385.3S100.7,296.1,100.7,186  L100.7,186z"
   id="path5"
   style="fill:#005544" />&#10;<path
   class="st1"
   d="M139.9,186c0-88.4,71.7-160.1,160.1-160.1S460.1,97.6,460.1,186S388.4,346.1,300,346.1S139.9,274.4,139.9,186  L139.9,186z"
   id="path6"
   style="fill:#002b22" />&#10;<path
   class="st0"
   d="M180.7,186c0-65.9,53.4-119.3,119.3-119.3S419.3,120.1,419.3,186S365.9,305.3,300,305.3S180.7,251.9,180.7,186  L180.7,186z"
   id="path7"
   style="fill:#000000;fill-opacity:1" />&#10;&#10;&#10;&#10;<g
   transform="matrix(1.0299576,0,0,1.0494684,52.585534,-3.7235436)"
   id="g3"><g
     data-paper-data="{&quot;isPaintingLayer&quot;:true}"
     fill="#ffffff"
     fill-rule="nonzero"
     stroke="none"
     stroke-width="NaN"
     stroke-linecap="butt"
     stroke-linejoin="miter"
     stroke-miterlimit="10"
     stroke-dasharray="none"
     stroke-dashoffset="0"
     style="mix-blend-mode:normal"
     id="g2"><path
       d="m 308.08944,180.16315 c 0,36.67388 -30.21087,66.40394 -67.47783,66.40394 -11.06101,0 -19.02795,-1.13551 -26.11438,-4.50219 l -33.00907,37.62486 c -3.22947,3.68106 -9.29244,3.85209 -13.54207,0.38203 -4.24958,-3.47006 -5.07653,-9.26714 -1.84707,-12.9482 l 51.00151,-58.13325 c 3.22947,-3.68106 9.29244,-3.85209 13.54207,-0.38203 4.24958,3.47006 5.07653,9.26714 1.84707,12.9482 l -7.94223,9.05286 c 4.54395,0.94542 9.65754,1.12736 15.87879,1.12736 28.97404,0 52.46215,-23.64421 52.46215,-52.81083 0,-29.16662 -23.48811,-52.81083 -52.46215,-52.81083 -28.97404,0 -52.46215,23.64421 -52.46215,52.81083 0,3.20607 -0.0441,10.7272 2.18082,16.72141 1.60187,4.31559 5.40589,6.96028 6.42468,10.76865 1.87771,7.01899 -2.62129,9.04211 -3.96733,9.65415 -3.76676,1.71266 -10.98547,-3.92323 -11.6462,-4.8452 -6.13259,-8.55776 -7.82222,-19.84008 -7.82222,-31.06169 0,-36.67388 30.21087,-66.40394 67.47783,-66.40394 37.26696,0 67.47783,29.73006 67.47783,66.40394 z M 354.77536,180 c 0,62.37986 -51.38666,112.94868 -114.77536,112.94868 -5.63066,0 -11.16661,-0.39902 -16.58029,-1.16987 -4.25053,-0.60526 -12.28206,-8.36311 -10.85022,-14.45087 1.46572,-6.23189 12.46903,-10.78648 14.41619,-10.5072 4.14794,0.59488 8.38778,0.90265 12.69903,0.90265 49.28297,0 89.2347,-40.2173 89.2347,-89.82783 0,-49.61053 -39.95173,-89.82783 -89.2347,-89.82783 -49.28297,0 -89.2347,40.2173 -89.2347,89.82783 0,13.48718 2.95277,26.28007 8.24306,37.75942 1.42305,3.08786 9.37132,12.39232 10.27259,18.80944 1.04399,7.4331 -5.18309,11.92819 -7.12745,13.32822 -1.58085,1.13832 -7.89639,0.0395 -12.88785,-3.4411 -5.6171,-3.91688 -9.96287,-10.52578 -11.78341,-14.12881 C 129.52301,215.09488 125.22463,198.0414 125.22463,180 c 0,-62.37986 51.38666,-112.94868 114.77536,-112.94868 63.3887,0 114.77536,50.56887 114.77536,112.94868 z"
       stroke-width="NaN"
       id="path1-9" /></g></g></svg>
