<?xml version="1.0" encoding="UTF-8" standalone="no"?>
<svg
   width="16px"
   height="16px"
   viewBox="0 0 16 16"
   version="1.1"
   id="svg1"
   sodipodi:docname="icon--show.svg"
   inkscape:version="1.3 (0e150ed6c4, 2023-07-21)"
   xmlns:inkscape="http://www.inkscape.org/namespaces/inkscape"
   xmlns:sodipodi="http://sodipodi.sourceforge.net/DTD/sodipodi-0.dtd"
   xmlns="http://www.w3.org/2000/svg"
   xmlns:svg="http://www.w3.org/2000/svg">
  <sodipodi:namedview
     id="namedview1"
     pagecolor="#505050"
     bordercolor="#ffffff"
     borderopacity="1"
     inkscape:showpageshadow="0"
     inkscape:pageopacity="0"
     inkscape:pagecheckerboard="1"
     inkscape:deskcolor="#505050"
     inkscape:zoom="63.125"
     inkscape:cx="8"
     inkscape:cy="8"
     inkscape:window-width="2100"
     inkscape:window-height="1224"
     inkscape:window-x="-9"
     inkscape:window-y="89"
     inkscape:window-maximized="1"
     inkscape:current-layer="Page-1" />
  <!-- Generator: Sketch 43.2 (39069) - http://www.bohemiancoding.com/sketch -->
  <title
     id="title1">show-icon-active</title>
  <desc
     id="desc1">Created with Sketch.</desc>
  <defs
     id="defs1" />
  <g
     id="Page-1"
     stroke="none"
     stroke-width="1"
     fill="none"
     fill-rule="evenodd">
    <g
       id="show-icon-active"
       fill-rule="nonzero"
       fill="#00c3ff"
       style="fill:#625e97;fill-opacity:1">
      <g
         transform="translate(1.000000, 2.000000)"
         id="g1"
         style="fill:#625e97;fill-opacity:1">
        <path
           d="M13.5091295,4.36470987 C14.1505195,5.26785566 14.1765976,6.75321925 13.5091295,7.63529009 C13.5091295,7.63529009 11.4744401,11.5 6.99999999,11.5 C2.52555986,11.5 0.49087044,7.63529009 0.49087044,7.63529009 C-0.150519518,6.7321443 -0.176597571,5.24678071 0.49087044,4.36470987 C0.49087044,4.36470987 2.52555986,0.5 6.99999999,0.5 C11.4744401,0.5 13.5091295,4.36470987 13.5091295,4.36470987 Z M6.99889412,9.99889412 C9.2077277,9.99889412 10.9983412,8.20828068 10.9983412,5.99944706 C10.9983412,3.79061344 9.2077277,2 6.99889412,2 C4.7900605,2 2.99944706,3.79061344 2.99944706,5.99944706 C2.99944706,8.20828068 4.7900605,9.99889412 6.99889412,9.99889412 Z"
           id="Combined-Shape"
           style="fill:#625e97;fill-opacity:1" />
        <circle
           id="Oval"
           cx="7"
           cy="6"
           r="2"
           style="fill:#625e97;fill-opacity:1" />
      </g>
    </g>
  </g>
</svg>
