<?xml version="1.0" encoding="UTF-8" standalone="no"?>
<svg
   width="16px"
   height="16px"
   viewBox="0 0 16 16"
   version="1.1"
   id="svg1"
   sodipodi:docname="icon--hide.svg"
   inkscape:version="1.3 (0e150ed6c4, 2023-07-21)"
   xmlns:inkscape="http://www.inkscape.org/namespaces/inkscape"
   xmlns:sodipodi="http://sodipodi.sourceforge.net/DTD/sodipodi-0.dtd"
   xmlns="http://www.w3.org/2000/svg"
   xmlns:svg="http://www.w3.org/2000/svg">
  <sodipodi:namedview
     id="namedview1"
     pagecolor="#505050"
     bordercolor="#ffffff"
     borderopacity="1"
     inkscape:showpageshadow="0"
     inkscape:pageopacity="0"
     inkscape:pagecheckerboard="1"
     inkscape:deskcolor="#505050"
     inkscape:zoom="63.125"
     inkscape:cx="8"
     inkscape:cy="8"
     inkscape:window-width="2100"
     inkscape:window-height="1224"
     inkscape:window-x="-9"
     inkscape:window-y="89"
     inkscape:window-maximized="1"
     inkscape:current-layer="Page-1" />
  <!-- Generator: Sketch 43.2 (39069) - http://www.bohemiancoding.com/sketch -->
  <title
     id="title1">hide-icon-active</title>
  <desc
     id="desc1">Created with Sketch.</desc>
  <defs
     id="defs1" />
  <g
     id="Page-1"
     stroke="none"
     stroke-width="1"
     fill="none"
     fill-rule="evenodd"
     transform="translate(0,0.03168317)">
    <g
       id="hide-icon-active"
       fill="#00c3ff"
       style="fill:#625e97;fill-opacity:1">
      <g
         transform="translate(1,1)"
         id="Combined-Shape"
         style="fill:#625e97;fill-opacity:1">
        <path
           d="M 2.0667554,10.566953 C 0.99929995,9.6010063 0.49087044,8.6352901 0.49087044,8.6352901 c -0.64138996,-0.9031458 -0.66746801,-2.3885094 0,-3.2705802 C 0.49087044,5.3647099 2.5255599,1.5 7,1.5 c 1.3167212,0 2.4221637,0.334678 3.32665,0.8070584 L 11.973709,0.65999997 12.680815,1.3671067 1.3671067,12.680815 0.65999997,11.973709 Z M 9.0615045,3.572204 C 8.4592531,3.2089732 7.7534778,3 6.9988941,3 4.7900605,3 2.9994471,4.7906134 2.9994471,6.9994471 c 0,0.7545836 0.2089732,1.4603589 0.5722039,2.0626103 L 5.0781665,7.555542 C 5.0272714,7.3791627 5,7.1927661 5,7 5,5.8954305 5.8954305,5 7,5 7.1927661,5 7.3791627,5.0272714 7.555542,5.0781665 Z M 3.6875724,11.70035 4.951876,10.436046 c 0.5988264,0.357461 1.2989369,0.562848 2.0470181,0.562848 2.2088336,0 3.9994469,-1.7906133 3.9994469,-3.9994469 0,-0.7480813 -0.205387,-1.4481918 -0.562848,-2.0470182 L 11.94459,3.4433322 c 1.059713,0.9625046 1.56454,1.9213777 1.56454,1.9213777 0.64139,0.9031458 0.667468,2.3885093 0,3.2705802 C 13.50913,8.6352901 11.47444,12.5 7,12.5 5.6901723,12.5 4.5894169,12.168817 3.6875724,11.70035 Z M 6.461307,8.9266149 8.9266149,6.461307 C 8.9744347,6.632693 9,6.8133609 9,7 9,8.1045695 8.1045695,9 7,9 6.8133609,9 6.632693,8.9744347 6.461307,8.9266149 Z"
           id="path1"
           style="fill:#625e97;fill-opacity:1" />
      </g>
    </g>
  </g>
</svg>
