<?xml version="1.0" encoding="UTF-8" standalone="no"?>
<svg
   viewBox="0 0 20 20"
   fill="#00c3ff"
   version="1.1"
   id="svg1"
   sodipodi:docname="icon--variables.svg"
   inkscape:version="1.3 (0e150ed6c4, 2023-07-21)"
   xmlns:inkscape="http://www.inkscape.org/namespaces/inkscape"
   xmlns:sodipodi="http://sodipodi.sourceforge.net/DTD/sodipodi-0.dtd"
   xmlns="http://www.w3.org/2000/svg"
   xmlns:svg="http://www.w3.org/2000/svg">
  <defs
     id="defs1" />
  <sodipodi:namedview
     id="namedview1"
     pagecolor="#505050"
     bordercolor="#ffffff"
     borderopacity="1"
     inkscape:showpageshadow="0"
     inkscape:pageopacity="0"
     inkscape:pagecheckerboard="1"
     inkscape:deskcolor="#505050"
     inkscape:zoom="50.5"
     inkscape:cx="10"
     inkscape:cy="10"
     inkscape:window-width="2100"
     inkscape:window-height="1224"
     inkscape:window-x="-9"
     inkscape:window-y="89"
     inkscape:window-maximized="1"
     inkscape:current-layer="svg1" />
  <g
     transform="translate(-230.00989,-170.00025)"
     id="g3">
    <g
       data-paper-data="{&quot;isPaintingLayer&quot;:true}"
       fill="#625e97"
       fill-rule="evenodd"
       stroke="none"
       stroke-width="1"
       stroke-linecap="butt"
       stroke-linejoin="miter"
       stroke-miterlimit="10"
       stroke-dasharray="none"
       stroke-dashoffset="0"
       style="mix-blend-mode:normal"
       id="g2">
      <path
         d="m 234.649,173.084 c 0.50492,0.22187 0.73488,0.81065 0.514,1.316 -0.77028,1.76631 -1.16627,3.67304 -1.163,5.6 0,1.993 0.416,3.886 1.164,5.6 0.20091,0.50158 -0.0329,1.07204 -0.52811,1.28828 -0.49517,0.21623 -1.07255,2e-5 -1.30389,-0.48828 -0.8811,-2.01849 -1.33463,-4.19758 -1.332,-6.4 0,-2.274 0.475,-4.44 1.332,-6.4 0.10618,-0.2431 0.30461,-0.43406 0.5516,-0.53083 0.247,-0.0968 0.52233,-0.0914 0.7654,0.0148 z M 242.96,177 c -0.91115,2e-4 -1.77283,0.41449 -2.342,1.126 l -0.328,0.41 -0.111,-0.279 c -0.30367,-0.75891 -1.03859,-1.25665 -1.856,-1.257 H 238 c -0.55228,0 -1,0.44772 -1,1 0,0.55228 0.44772,1 1,1 h 0.323 l 0.532,1.33 -1.035,1.295 c -0.18986,0.23714 -0.47722,0.37511 -0.781,0.375 H 237 c -0.55228,0 -1,0.44772 -1,1 0,0.55228 0.44772,1 1,1 h 0.039 c 0.91115,-2e-4 1.77283,-0.41449 2.342,-1.126 l 0.328,-0.41 0.111,0.279 c 0.3038,0.75925 1.03923,1.25705 1.857,1.257 H 242 c 0.55228,0 1,-0.44772 1,-1 0,-0.55228 -0.44772,-1 -1,-1 h -0.323 l -0.532,-1.33 1.035,-1.295 c 0.18986,-0.23714 0.47722,-0.37511 0.781,-0.375 H 243 c 0.55228,0 1,-0.44772 1,-1 0,-0.55228 -0.44772,-1 -1,-1 h -0.039 z m 1.874,-2.6 c -0.21743,-0.50544 0.0143,-1.09159 0.5186,-1.31168 0.50429,-0.22009 1.09165,0.009 1.3144,0.51168 0.88145,2.01842 1.33531,4.19751 1.333,6.4 0,2.274 -0.475,4.44 -1.332,6.4 -0.13557,0.33845 -0.4446,0.5763 -0.80648,0.62071 -0.36188,0.0444 -0.71925,-0.11164 -0.93264,-0.40727 -0.21339,-0.29562 -0.24898,-0.68396 -0.0929,-1.01344 0.77065,-1.76623 1.16698,-3.67297 1.164,-5.6 0,-1.993 -0.416,-3.886 -1.165,-5.6 z"
         id="path1-9" />
    </g>
  </g>
</svg>
