<?xml version="1.0" encoding="utf-8"?>
<!-- Generator: Adobe Illustrator 28.0.0, SVG Export Plug-In . SVG Version: 6.00 Build 0)  -->
<svg version="1.1" id="Calque_1" xmlns="http://www.w3.org/2000/svg" xmlns:xlink="http://www.w3.org/1999/xlink" x="0px" y="0px"
	 viewBox="0 0 600 372" style="enable-background:new 0 0 600 372;" xml:space="preserve">
<style type="text/css">
	.st0{fill:#505072;}
	.st1{fill:#383849;}
	.st2{fill:none;}
	.st3{fill:#2D2C3F;}
	.st4{fill:#FFFFFF;}
</style>
<path class="st0" d="M0,372V0h600v372H0z"/>
<path class="st1" d="M-19.3,186c0-176.4,143-319.3,319.3-319.3S619.3,9.6,619.3,186S476.4,505.3,300,505.3S-19.3,362.4-19.3,186
	L-19.3,186z"/>
<path class="st0" d="M20.2,186C20.2,31.4,145.4-93.8,300-93.8S579.8,31.4,579.8,186S454.6,465.8,300,465.8S20.2,340.6,20.2,186
	L20.2,186z"/>
<path class="st1" d="M60.2,186C60.2,53.5,167.5-53.8,300-53.8S539.8,53.5,539.8,186S432.5,425.8,300,425.8S60.2,318.5,60.2,186z"/>
<path class="st0" d="M100.7,186c0-110.1,89.2-199.3,199.3-199.3S499.3,75.9,499.3,186S410.1,385.3,300,385.3S100.7,296.1,100.7,186
	L100.7,186z"/>
<path class="st1" d="M139.9,186c0-88.4,71.7-160.1,160.1-160.1S460.1,97.6,460.1,186S388.4,346.1,300,346.1S139.9,274.4,139.9,186
	L139.9,186z"/>
<path class="st0" d="M180.7,186c0-65.9,53.4-119.3,119.3-119.3S419.3,120.1,419.3,186S365.9,305.3,300,305.3S180.7,251.9,180.7,186
	L180.7,186z"/>
<path class="st1" d="M219.9,186c0-44.2,35.9-80.1,80.1-80.1s80.1,35.9,80.1,80.1c0,44.2-35.9,80.1-80.1,80.1
	C255.8,266.1,219.9,230.2,219.9,186L219.9,186z"/>
<path class="st0" d="M260.1,186c0-22.1,17.9-39.9,39.9-39.9s39.9,17.9,39.9,39.9c0,22.1-17.9,39.9-39.9,39.9
	C277.9,225.9,260.1,208.1,260.1,186z"/>
<g transform="translate(-109.25,-47.78747)">
	<g>
		<path class="st2" d="M168.3,55"/>
		<g>
			<path class="st3" d="M539.1,235c0,73-58.5,132.2-130.8,132.2S277.6,308,277.6,235s58.5-132.2,130.8-132.2S539.1,162,539.1,235z"
				/>
			<path class="st4" d="M382.9,344l-11.3-4l22.9-84.3h-26.7c-5.6,0-9.2-3.9-9.2-9.5l14.4-21.5L436.6,119l10.3,3.7L426.2,211h21.9
				c5.6,0,10.2,4.6,10.2,10.2l-29.2,46L382.9,344z M518.3,234.4c0,61.7-49.4,111.8-110.2,111.8c-1.4,0-2.7,0-4.1-0.1l16.8-26.8
				c42.1-6,74.5-41.7,74.6-84.8c0,0,0,0,0,0c0,0,0,0,0,0c0-29.1-14.7-54.7-37.2-70.3l6.4-25.8C496.8,157.9,518.3,193.6,518.3,234.4z
				 M297.8,234.4c0-61.7,49.4-111.8,110.2-111.8c1.5,0,2.9,0,4.4,0.1L396,149.5c-42.5,5.8-75.2,41.6-75.2,84.9
				c0,30.5,16.2,57.2,40.6,72.5l-7.6,24.8c0,0,0,0,0,0.1C320.4,312.6,297.8,276.2,297.8,234.4z"/>
		</g>
	</g>
</g>
</svg>
